# xmcd
#
# Track frame offsets:
#	150
#	12060
#	26297
#	39420
#	51862
#	64145
#	76280
#	90654
#	100104
#	111412
#	124747
#	136115
#
# Disc length: 2052 seconds
#
# Revision: 1
# Processed by: cddbd v1.5.2PL0 Copyright (c) Steve Scherf et al.
# Submitted via: audiograbber 1.83.01
#
DISCID=8e08020c
DTITLE=Walt Quigley - Lift Off
DYEAR=1998
DGENRE=Country
TTITLE0=Goin`Up The Country
TTITLE1=El Paso
TTITLE2=Amarillo By Morning
TTITLE3=The Banana Boot Song
TTITLE4=The Cattle Call
TTITLE5=Crying
TTITLE6=Every Day I Have The Blues
TTITLE7=I Remember You
TTITLE8=Only The Lonley
TTITLE9=The Lion Sleeps Tonight
TTITLE10=It`s Only Make Believe
TTITLE11=A Love So Beautiful
EXTD=
EXTT0=
EXTT1=
EXTT2=
EXTT3=
EXTT4=
EXTT5=
EXTT6=
EXTT7=
EXTT8=
EXTT9=
EXTT10=
EXTT11=
PLAYORDER=
